<?xml version="1.0" encoding="utf-8"?>
<!-- Generator: Adobe Illustrator 16.0.0, SVG Export Plug-In . SVG Version: 6.00 Build 0)  -->
<!DOCTYPE svg PUBLIC "-//W3C//DTD SVG 1.1//EN" "http://www.w3.org/Graphics/SVG/1.1/DTD/svg11.dtd">
<svg version="1.1" id="Calque_1" xmlns="http://www.w3.org/2000/svg" xmlns:xlink="http://www.w3.org/1999/xlink" x="0px" y="0px"
	 width="146.197px" height="70px" viewBox="0 0 146.197 70" enable-background="new 0 0 146.197 70" xml:space="preserve">
<path fill="#2A2A2A" d="M0,0h15.8v29.2h31.7V0h15.8v70H47.5V42.4H15.8V70H0V0z"/>
<path fill="#2A2A2A" d="M78.699,0h15.8v70h-15.8V0z"/>
<path id="dot" fill="#2A2A2A" d="M144.047,56.299c1.434,1.467,2.15,3.367,2.15,5.701s-0.717,4.25-2.15,5.75S140.762,70,138.496,70
	c-2.199,0-4.033-0.768-5.5-2.301s-2.199-3.434-2.199-5.699c0-2.334,0.732-4.234,2.199-5.701c1.467-1.465,3.301-2.2,5.5-2.2
	C140.762,54.1,142.613,54.834,144.047,56.299z"/>
<polygon fill="#2A2A2A" points="131.297,0 145.996,0 145.996,17.3 143.297,45.5 133.996,45.5 131.297,17.3 "/>
</svg>
